<?xml version="1.0" encoding="iso-8859-1"?>
<!-- Generator: Adobe Illustrator 23.0.1, SVG Export Plug-In . SVG Version: 6.00 Build 0)  -->
<svg version="1.1" id="Layer_1" xmlns="http://www.w3.org/2000/svg" xmlns:xlink="http://www.w3.org/1999/xlink" x="0px" y="0px"
	 width="625.262px" height="98.362px" viewBox="0 0 625.262 98.362" enable-background="new 0 0 625.262 98.362"
	 xml:space="preserve">
<g>
	<path fill="#397CFF" d="M0,8.828h18.496l3.783,29.845c0.735,7.146,1.576,14.292,2.312,21.438h0.42
		c1.261-7.146,2.522-14.396,3.783-21.438L35.31,8.828h15.132l6.516,29.845c1.261,6.831,2.522,14.187,3.783,21.438h0.42
		c0.735-7.251,1.576-14.502,2.312-21.438l3.783-29.845H84.49l-11.35,68.307H50.232l-5.254-27.112
		c-1.051-5.255-1.892-10.93-2.522-15.974h-0.42c-0.736,5.044-1.471,10.719-2.522,15.974l-5.044,27.112H11.98L0,8.828z"/>
	<path fill="#397CFF" d="M111.182,43.086c-0.42-3.783-2.732-5.465-7.356-5.465c-3.783,0-7.776,1.471-13.241,4.413l-6.305-11.77
		c7.356-4.413,14.922-6.936,23.119-6.936c13.661,0,21.858,7.356,21.858,24.591v29.214h-14.712l-1.261-5.044h-0.42
		c-4.204,3.783-8.827,6.305-14.502,6.305c-9.878,0-15.763-7.566-15.763-16.184C82.598,51.283,91.005,45.188,111.182,43.086z
		 M104.667,64.524c2.942,0,4.624-1.472,6.516-3.573v-7.146c-8.617,1.261-11.35,3.993-11.35,6.936
		C99.833,63.158,101.514,64.524,104.667,64.524z"/>
	<path fill="#397CFF" d="M137.243,38.672h-6.936V25.221l7.987-0.631l2.102-13.661h14.922V24.59h11.98v14.082h-11.98v17.97
		c0,5.78,2.942,7.672,6.305,7.672c1.682,0,3.363-0.421,4.624-0.841l2.732,13.03c-2.732,0.841-6.621,1.892-12.4,1.892
		c-13.662,0-19.336-8.617-19.336-21.438V38.672z"/>
	<path fill="#397CFF" d="M192.099,23.33c15.553,0,22.909,11.35,22.909,25.431c0,3.153-0.42,5.886-0.735,7.146h-29.95
		c1.682,6.726,6.305,8.827,12.19,8.827c3.573,0,6.936-1.051,10.719-3.152l5.885,10.719c-5.675,3.993-13.241,6.095-19.126,6.095
		c-15.342,0-27.112-10.088-27.112-27.532C166.877,33.838,179.278,23.33,192.099,23.33z M199.665,44.978
		c0-4.414-1.681-7.987-7.146-7.987c-3.993,0-7.356,2.207-8.407,7.987H199.665z"/>
	<path fill="#397CFF" d="M218.58,24.59h14.712l1.261,9.038h0.42c3.888-7.146,9.773-10.299,14.922-10.299
		c3.258,0,5.044,0.42,6.515,1.051l-2.942,15.553c-1.892-0.42-3.573-0.841-5.885-0.841c-3.783,0-8.407,2.313-10.929,8.828v29.214
		H218.58V24.59z"/>
	<path fill="#397CFF" d="M261.981,59.9c4.834,3.573,9.143,5.255,12.82,5.255c3.783,0,5.254-1.052,5.254-3.153
		c0-2.732-4.834-3.993-10.088-6.095c-6.095-2.417-13.241-6.936-13.241-15.553c0-10.299,8.407-17.024,20.807-17.024
		c8.617,0,14.712,3.468,19.336,6.936l-7.986,10.719c-3.783-2.731-7.461-4.413-10.719-4.413c-3.047,0-4.624,0.841-4.624,2.942
		c0,2.732,4.624,3.783,9.878,5.675c6.305,2.312,13.451,6.305,13.451,15.763c0,9.878-7.776,17.444-22.489,17.444
		c-6.726,0-14.922-2.942-20.387-7.355L261.981,59.9z"/>
	<path fill="#397CFF" d="M298.341,9.038c0-5.254,4.203-9.038,10.088-9.038c5.885,0,10.089,3.783,10.089,9.038
		c0,5.255-4.204,9.038-10.089,9.038C302.544,18.076,298.341,14.292,298.341,9.038z M299.392,24.59h18.075v52.544h-18.075V24.59z"/>
	<path fill="#397CFF" d="M342.477,23.33c5.675,0,9.038,2.102,12.19,5.254l-0.63-7.565V3.994h18.075v73.141h-14.712l-1.261-4.834
		h-0.42c-3.573,3.573-8.617,6.095-13.241,6.095c-13.031,0-21.438-10.509-21.438-27.532C321.039,33.628,331.758,23.33,342.477,23.33z
		 M347.311,63.683c2.732,0,4.834-0.841,6.726-3.783V40.564c-2.102-1.892-4.834-2.522-7.146-2.522c-3.783,0-7.356,3.363-7.356,12.61
		C339.534,60.11,342.477,63.683,347.311,63.683z"/>
	<path fill="#397CFF" d="M400.483,23.33c15.553,0,22.909,11.35,22.909,25.431c0,3.153-0.421,5.886-0.736,7.146h-29.949
		c1.681,6.726,6.305,8.827,12.189,8.827c3.573,0,6.937-1.051,10.719-3.152l5.886,10.719c-5.675,3.993-13.241,6.095-19.126,6.095
		c-15.343,0-27.113-10.088-27.113-27.532C375.262,33.838,387.662,23.33,400.483,23.33z M408.05,44.978
		c0-4.414-1.682-7.987-7.146-7.987c-3.993,0-7.355,2.207-8.407,7.987H408.05z"/>
	<path fill="#151515" d="M474.357,7.146c9.563,0,16.184,4.309,20.492,8.723l-6.726,7.566c-3.469-3.363-7.251-5.675-13.662-5.675
		c-12.189,0-20.387,9.458-20.387,24.905c0,15.658,7.356,25.116,21.123,25.116c3.783,0,7.566-1.051,9.772-3.048V49.917h-12.926
		v-9.983H495.9v30.266c-4.729,4.413-12.821,8.196-22.174,8.196c-18.285,0-32.156-12.61-32.156-35.414
		C441.57,20.493,455.862,7.146,474.357,7.146z"/>
	<path fill="#151515" d="M506.199,88.588c5.464,0,8.617-3.678,10.298-8.827l0.946-3.258l-20.282-50.967h12.296l8.932,25.326
		c1.472,4.519,2.942,9.668,4.52,14.502h0.42c1.261-4.729,2.627-9.879,3.889-14.502l7.776-25.326h11.664l-18.705,53.909
		c-4.309,11.665-9.668,18.916-20.912,18.916c-2.838,0-4.834-0.42-6.726-1.051l2.206-9.458
		C503.467,88.168,504.938,88.588,506.199,88.588z"/>
	<path fill="#151515" d="M551.385,25.537h9.983l0.841,7.041h0.421c4.309-4.624,9.353-8.303,15.763-8.303
		c7.566,0,11.875,3.469,14.292,9.248c4.939-5.254,10.088-9.248,16.604-9.248c10.93,0,15.974,7.462,15.974,20.492v32.367h-12.19
		V46.343c0-8.512-2.521-11.664-7.882-11.664c-3.257,0-6.83,2.102-10.823,6.41v36.045h-12.085V46.343
		c0-8.512-2.522-11.664-7.987-11.664c-3.152,0-6.83,2.102-10.823,6.41v36.045h-12.086V25.537z"/>
</g>
<g>
</g>
<g>
</g>
<g>
</g>
<g>
</g>
<g>
</g>
<g>
</g>
<g>
</g>
<g>
</g>
<g>
</g>
<g>
</g>
<g>
</g>
<g>
</g>
<g>
</g>
<g>
</g>
<g>
</g>
</svg>
